<svg width="34" height="35" viewBox="0 0 34 35" fill="none" xmlns="http://www.w3.org/2000/svg">

<path fill-rule="evenodd" clip-rule="evenodd" d="M5.12132 0.87868C3.94975 -0.292893 2.05025 -0.292893 0.87868 0.87868C-0.292893 2.05025 -0.292893 3.94975 0.87868 5.12132L13.1109 17.3536L0.87868 29.5858C-0.292893 30.7574 -0.292893 32.6569 0.87868 33.8284C2.05025 35 3.94975 35 5.12132 33.8284L17.3536 21.5962L28.8787 33.1213C30.0503 34.2929 31.9497 34.2929 33.1213 33.1213C34.2929 31.9497 34.2929 30.0503 33.1213 28.8787L21.5962 17.3536L33.1213 5.82843C34.2929 4.65686 34.2929 2.75736 33.1213 1.58579C31.9497 0.414215 30.0503 0.414216 28.8787 1.58579L17.3536 13.1109L5.12132 0.87868Z" fill="white"/>

</svg>

