<svg xmlns="http://www.w3.org/2000/svg" width="68" height="68" viewBox="0 0 68 68" fill="none"><path d="M57.1792 2H53.5398C53.0222 2 52.6027 2.41963 52.6027 2.93713C52.6027 3.45463 53.0223 3.87425 53.5398 3.87425H57.1792C57.4893 3.87425 57.7414 4.1265 57.7414 4.4365V13.5437H10.2585V4.43663C10.2585 4.1265 10.5108 3.87437 10.8208 3.87437H49.1117C49.6293 3.87437 50.0488 3.45475 50.0488 2.93725C50.0488 2.41975 49.6294 2 49.1118 2H10.8209C9.47728 2 8.38428 3.093 8.38428 4.43663V49.9351C8.38428 51.2787 9.47728 52.3717 10.8209 52.3717H15.005C18.0287 60.3293 25.7329 66 34.738 66C37.3459 66 39.8919 65.5298 42.3054 64.6022C42.7885 64.4166 43.0297 63.8744 42.844 63.3913C42.6583 62.9081 42.1163 62.6673 41.633 62.8526C39.4349 63.6974 37.115 64.1256 34.738 64.1256C32.4667 64.1256 30.2865 63.7286 28.262 63.0023L35.3207 45.8358H53.9403C53.6442 51.9743 50.4529 57.5861 45.2724 60.9856C44.8396 61.2696 44.719 61.8506 45.003 62.2834C45.183 62.5576 45.4823 62.7065 45.7874 62.7065C45.9638 62.7065 46.1422 62.6567 46.3007 62.5527C50.0998 60.0597 52.9229 56.4815 54.4762 52.3717H57.179C58.5227 52.3717 59.6157 51.2787 59.6157 49.9351V4.43663C59.6158 3.093 58.5228 2 57.1792 2ZM27.8073 22.1855H17.5763V19.6665H27.8073V22.1855ZM17.5763 24.0599H27.8073V26.5789H22.3793C22.3355 26.5789 22.2928 26.5829 22.2505 26.5888C21.4083 26.2225 20.4799 26.0181 19.5044 26.0181C18.8352 26.0181 18.1887 26.1156 17.5763 26.2939V24.0599ZM24.7633 28.4531H27.8073V30.9721H26.1304C25.8532 30.0342 25.382 29.1794 24.7633 28.4531ZM19.5044 27.8924C22.2809 27.8924 24.5397 30.1511 24.5397 32.9276C24.5397 35.7041 22.2809 37.9629 19.5044 37.9629C16.7279 37.9629 14.4692 35.7041 14.4692 32.9276C14.4692 30.1511 16.7279 27.8924 19.5044 27.8924ZM52.5167 37.5802L35.626 43.5719V25.6929C43.2556 26.0415 49.739 30.8574 52.5167 37.5802ZM53.1464 39.3455C53.5915 40.8181 53.8649 42.3643 53.942 43.9614L40.134 43.9613L53.1464 39.3455ZM57.1792 50.4974H55.0858C55.5793 48.6974 55.8395 46.8177 55.8395 44.8986C55.8395 33.2632 46.3734 23.7973 34.7382 23.7973C34.2075 23.7973 33.672 23.8171 33.1463 23.8564C32.6302 23.8949 32.243 24.3445 32.2815 24.8608C32.32 25.3769 32.7684 25.7639 33.2859 25.7255C33.44 25.714 33.5962 25.7074 33.7518 25.6995V44.7228L26.531 62.2835C20.0232 59.1989 15.511 52.5661 15.511 44.8986C15.511 42.913 15.8112 40.9673 16.4022 39.0988C17.3358 39.57 18.3892 39.8372 19.5045 39.8372C23.3145 39.8372 26.414 36.7376 26.414 32.9277C26.414 32.9005 26.4123 32.8737 26.412 32.8466H28.1198C28.981 32.8466 29.6817 32.146 29.6817 31.2847V19.3542C29.6817 18.493 28.981 17.7924 28.1198 17.7924H17.264C16.4028 17.7924 15.7022 18.493 15.7022 19.3542V27.1625C13.8318 28.4002 12.595 30.5218 12.595 32.9276C12.595 34.9206 13.4443 36.7181 14.7985 37.9804C14.0282 40.1997 13.6368 42.5236 13.6368 44.8986C13.6368 46.8365 13.9008 48.7136 14.3922 50.4974H10.8209C10.5108 50.4974 10.2587 50.2451 10.2587 49.9351V15.4181H57.7415V49.9351C57.7415 50.2451 57.4893 50.4974 57.1792 50.4974Z" fill="white"/><path d="M18.6793 5.83508H13.923C13.4053 5.83508 12.9858 6.25471 12.9858 6.77221C12.9858 7.28971 13.4055 7.70933 13.923 7.70933H18.6793C19.197 7.70933 19.6165 7.28971 19.6165 6.77221C19.6165 6.25471 19.197 5.83508 18.6793 5.83508Z" fill="white"/><path d="M18.6793 9.56311H13.923C13.4053 9.56311 12.9858 9.98274 12.9858 10.5002C12.9858 11.0177 13.4055 11.4374 13.923 11.4374H18.6793C19.197 11.4374 19.6165 11.0177 19.6165 10.5002C19.6165 9.98274 19.197 9.56311 18.6793 9.56311Z" fill="white"/></svg>