<svg fill="none" height="497" viewBox="0 0 982 497" width="982" xmlns="http://www.w3.org/2000/svg"><path d="m121.579 21.5387c-4.955.0232-11.804-1.5506-16.739-2.5915-8.0251-1.6914-17.5076-3.9424-25.5272-3.9424-6.7652 0-12.9514 4.3185-17.2686 5.821-6.678 2.3224-15.1056 1.089-17.2686 2.44-2.1114 1.3189-2.0651 4.8817-3.5671 6.9474-2.122 2.9195-13.037 1.5596-14.8276 4.6947-.6379 1.1175.4276 3.3792 1.8762 3.7553 1.9599.508 4.5683-.9019 4.13 1.1264-.4276 1.9766-21.8013 6.8352-22.1488 12.2035-.1764 2.7305.1711 6.272 1.8762 6.9475 1.9314.7646 5.2419-1.4259 4.8802.5632-.3279 1.8055-5.2775 5.6891-8.82141 6.5714-1.85301.4616-7.04857 1.474-7.88242 3.1921-1.161695 2.3936 1.35947 3.4113 3.96793 3.93 2.60847.5187 5.42184-3.4256 7.8575-4.4932 7.8379-3.4345 13.5608-6.1419 21.3969-9.5764 1.7675-.7753 9.3595-.1051 14.4517-1.5025 5.2953-1.4526 8.1016-4.9619 10.1363-5.2578 2.0009-.2905 6.4196 1.8768 8.4455 1.6896 6.1149-.565 7.0289-.7289 10.3234 2.2529 3.2944 2.9818 6.7403 9.2484 5.4432 15.0195-.6397 2.8517 1.7087 9.9881.7501 12.7668-.9586 2.7786-4.3154 3.479-4.1479 6.3967.1318 2.2992 2.3964 7.0864 2.6477 9.3749.8445 7.7442-6.1453 11.9292-10.58 18.3332-2.8472 4.11-6.6548 7.751-7.6259 12.082-.971 4.331.8963 9.354 1.5021 13.519.4365 3.005-2.7243 5.618-.7502 8.637 2.2718 3.475 7.0094 3.962 8.8214 7.698 1.1403 2.351-.8178 6.607-.187 10.327.4757 2.805 3.722 5.067 3.567 7.321-.1461 2.102-2.9078 1.563-2.6281 3.38.196 1.261 4.0802 3.566 5.2562 6.384.8017 1.925.4953 5.571 1.8761 7.134 3.0646 3.467 6.4428 5.411 7.3194 1.973 1.3149-5.165-11.1911-28.089-5.0655-29.761 1.8067-.493.6896 2.824 1.8762 6.759 1.5252 5.058 5.2561 11.465 6.9452 15.584 1.7657 4.306 5.8762 6.672 7.1323 9.764 1.3026 3.208-.3724 8.002.5631 11.453.5805 2.144 3.5435 3.073 4.6875 4.894 2.821 4.494 13.144 9.375 20.839 12.191 3.865 1.415 6.016-1.762 9.385-.75 5.63 1.69 7.617 7.819 9.573 8.448 7.04 2.269 8.027-1.404 13.326 3.755 3.155 3.071 1.951 6.486 4.13 10.703s9.534 7.122 11.857 10.924c1.47 2.406 5.064 1.225 7.163-.1 2.099-1.324 2.933-4.641 1.147-6.364-2.082-2.013-5.676-.638-8.327-1.808-4.09-1.802-3.388-7.776-1.825-11.963 1.563-4.186 2.872-9.865-.859-12.322-3.638-2.399-9.354.607-12.54-2.367-5.683-5.306 5.449-15.241 3.008-21.436-1.564-3.975-8.258-1.226-11.088 1.973-2.829 3.199-1.135 7.218-5.053 8.917-5.229 2.265-15.954-2.629-17.456-6.572-2.029-5.327 3.192-10.82 3.192-16.522 0-4.882 1.277-9.104 4.737-12.285 2.771-2.547 7.405-6.383 11.968-7.053 4.561-.67 9.117 1.754 12.952 1.314 2.243-.257 5.642-3.597 9.008-4.319 3.786-.811 5.819 2.44 9.384 2.816 3.568.376 1.527 4.959 2.304 9.694.471 2.868 2.242 7.871 5.018 7.017 3.775-1.16 2.899-1.03 3.077-3.769.178-2.74-1.071-5.333-1.388-8.058-.79-6.78 3.089-14.638 9.384-17.274 8.071-3.38 11.403-8.126 14.523-14.197 1.534-2.983 2.252-6.371 4.091-9.177 4.686-7.152 14.849-8.3 21.074-14.162 2.418-2.276 4.396-5.361 7.596-6.247 2.309-.64 4.748.032 7.123.346 4.125.543 6.192-1.891 10.721-3.315 3.585-1.127 10.325-.733 9.55-3.934-.418-1.731-6.621-1.722-8.424-3.951-1.336-1.652 1.329-5.322 2.252-7.6981 1.313-3.3792.255-5.4378 3.378-6.9474 4.237-2.0461 9.007 1.6718 12.013 2.2528 3.255.6292-5.156 7.0507-2.942 9.5177 2.744 3.057 12.546 1.085 16.644 1.37 5.343.373 4.969-4.5159 2.71-9.3745-3.82-2.9569.383-9.8491-.082-14.6577-.433-4.4915-6.994-6.288-8.259-10.7028s.515-10.505-3.002-13.33c-4.429-3.5575-13.139 6.3843-16.428 3.4916-3.403-2.9925 5.542-9.3126-3.28-13.6294-3.039-1.4882-9.488-2.9711-13.325-.5632-2.5 1.5685-3.343 6.4912-4.694 9.0114-1.35 2.5202-3.207 2.6378-4.88 5.0689-1.434 2.0817 1.059 5.9904-.376 8.0739-1.667 2.4221-10.842 3.5878-12.199 6.1953-1.427 2.7394-1.319 8.6424-3.933 10.2839-2.615 1.6416-4.807.8769-4.889-2.21-.053-2.0087 3.596-6.6873 2.628-8.4482-1.104-2.0069-4.725-1.3367-7.882-2.816-2.749-1.2887-4.971-4.8319-7.132-5.2579-4.644-.9125-7.811-1.3937-6.815-6.0206.277-1.2886-1.171-3.8659-.318-4.8693 1.401-1.6451 6.117-4.5948 9.574-6.3842 3.647-1.8875 8.313-1.1069 9.76-1.8768 2.651-1.4152 3.74-4.7624 6.193-5.445 3.379-.9393 5.397 2.6182 7.883 2.44 4.602-.328 2.373-1.8483 7.319-2.0657 1.944-.0856 3.694 1.7199 5.067.5632 3.364-2.8339-3.103-4.3631-.939-7.885 1.296-2.1084 8.635-2.0657 10.324-6.5713 1.318-3.5166 10.746-8.4215 13.138-4.3186 1.314 2.2529 6.199 2.5897 7.133 4.1314 1.555 2.5665-1.362 4.9762-3.941 6.3843-2.204 1.203-4.692 1.7912-7.32.5632-3.497-1.6326-7.863 1.2494-7.695 3.7553.187 2.8161 9.236 1.7324 10.136 2.44 4.684 3.6912 5.256 6.5714 10.324 8.4482 4.698 1.7413 10.024-5.0173 11.636-6.5714 2.687-2.5897-3.567-7.5107-.563-9.0114 2.019-1.0088 3.344 3.3686 5.63 4.3185 2.705 1.1247 5.976-1.6094 6.318-4.151.218-1.6183-.012-3.6092-1.25-4.6732-4.579-3.9389-2.707-9.1807-5.631-11.4531-2.017-1.5667-5.894-.1159-8.071-1.6897-2.79-2.0158-2.708-7.79226-6.193-9.01136-3.537-1.23871-8.296 1.19237-13.326 1.68964-5.03.49726-10.336-.9375-13.702.75035-4.117 2.06567-5.135 7.00807-6.783 9.34287-1.07 1.5168-2.449 2.9783-4.235 3.4791-2.936.8234-3.95-2.5968-5.017-5.4539-1.493-3.9924-8.914-.8662-11.416 2.5826-1.081 1.4918-.394 5.0386-1.83 6.1935-1.635 1.3172-12.165.8983-14.264.9393-8.987.1747-10.345-3.5557-19.332-3.3793-4.046.0785-9.882 3.7892-13.826 2.8963-2.835-.6434-5.203-2.6129-7.977-3.6163-15.256-5.5127-32.506-.139-48.171-.0677z" fill="#fff"/><path d="m177.148 197.698c3.319-.725 6.817-.139 9.99 1.071 3.175 1.21 6.081 3.018 8.964 4.816 1.759 1.096 3.519 2.192 5.278 3.29 1.42.886 2.916 1.854 3.613 3.376.184.399.305.857.164 1.273-.305.901-1.52 1.005-2.469.944-2.167-.141-4.335-.28-6.502-.42-1.169-.075-2.459-.205-3.255-1.065-.357-.383-.572-.873-.807-1.342-1.608-3.199-4.476-5.74-7.844-6.952-3.367-1.212-7.198-1.08-10.473.36-.707.31-1.402.684-2.166.793-.765.108-1.638-.116-2.051-.767-1.31-2.064 6.101-5.056 7.558-5.375z" fill="#fff"/><path d="m215.983 211.054c.266.235.451.545.701.797.561.567 1.377.775 2.139 1.014.936.292 1.846.663 2.721 1.107.579.294 1.158.634 1.54 1.158.381.524.518 1.278.169 1.824-.442.691-1.395.775-2.209.866-1.128.124-2.238.395-3.295.807-.777.303-1.527.679-2.327.92-1.63.492-3.382.388-5.065.141-1.91-.282-3.794-.744-5.616-1.38-.767-.267-1.663-.765-1.624-1.576.043-.896 1.178-1.269 2.074-1.249.897.018 1.944.134 2.541-.536.474-.533.433-1.344.289-2.043-.093-.444-.216-.898-.127-1.342.355-1.754 2.247-.734 3.293-.651 1.489.118 3.515-.996 4.796.141z" fill="#fff"/><path d="m187.174 278.213c-1.597 2.679-3.961 4.807-5.821 7.31-1.433 1.926-3.002 2.671-3.801 4.899-.801 2.239 1.836 7.222 1.604 9.625-.223 2.301-2.16 3.42-2.626 5.71-.581 2.845 1.735 6.231 3.873 8.726 2.487 2.904 3.991 6.076 5.167 9.268.889 2.414 3.35 4.501 4.276 6.951.927 2.451 2.459 5.283 4.098 7.664 2.151 3.127 2.153 6.233 5.189 8.507 3.328 2.492 6.995 4.495 10.729 6.32 1.232.601 5.641 2.904 7.065 6.383 2.029 4.956.916 11.738.909 14.581-.022 7.744.695 15.896-.909 21.243-1.391 4.643 3.925 12.088 4.098 16.932.164 4.568.959 9.235-.534 13.189-2.302 6.096-.127 4.166 1.959 10.338.752 2.226 1.413 7.628 2.317 10.337.525 1.578 2.508 3.127 3.92 7.13 1.446 4.102 4.454 9.253 4.454 14.615 0 4.455 4.597 8.897 5.88 12.298.862 2.288 1.628 4.826 3.741 6.059 1.6.934 2.147 2.093 3.958 2.488 1.616.353 4.017-.57 5.486.186 2.255 1.158 3.52 4.16 5.788 5.309.936.474 3.339-.108 4.367.216 3.086.973 6.744 3.319 7.594.287.508-1.811-2.156-2.372-4.208-3.317-1.1-.506-2.104-.907-3.029-1.069-1.217-.214-2.295-2.093-3.386-2.674-2.138-1.14-2.024-3.039-3.028-4.812-.793-1.399-2.914-2.6-3.386-4.456-.452-1.779.993-2.246 1.604-3.386.474-.886-.524-2.225-.178-3.208.561-1.594 3.15-1.617 3.029-3.921-.179-3.387-3.742-2.317-5.167-5.526-.809-1.821 1.265-2.896 2.316-5.703.379-1.011-1.205-2.276-.713-3.921.515-1.72 2.616-2.125 3.029-4.278.891-4.634 3.722-9.729 5.702-11.763 1.466-1.506 5.717-2.067 7.661-4.099s1.584-5.538 2.434-7.463c1.486-3.368 4.51-5.003 6.297-8.222 2.672-4.812 1.307-7.38 4.454-11.763.554-.772 3.006-2.415 3.92-3.743 1.887-2.743 2.409-5.685 2.512-7.642.082-1.558-.34-3.109-.289-4.668.138-4.151 2.019-7.359 5.616-9.434 3.598-2.075 11.582-3.565 14.611-5.347 1.641-.966 2.565-3.27 3.207-6.416.777-3.813 3.645-8.306 4.098-13.546.668-7.733-1.737-12.214 1.603-17.823 1.283-2.155 1.996-3.7 3.742-6.773 1.775-3.122 5.071-5.195 5.702-7.664.953-3.73 2.336-8.362.356-12.476-2.316-4.812-4.077-2.034-6.592-3.565-2.534-1.541-4.729-4.837-8.018-6.772-1.647-.97-4.725.101-7.662-.357-2.464-.383-11.141-6.32-12.828-6.773-8.713-2.336-11.537-2.646-15.06-10.954-1.04-2.452-1.527-5.145-2.877-7.443-3.086-5.256-9.654-7.059-15.48-8.845-5.826-1.788-10.414-6.976-13.799-10.719-1.144-1.266.463-4.666-.891-5.703-.825-.633-1.634-1.735-2.673-1.783-7.44-.34-10.46 2.879-17.639.891-2.703-.748-8.741-5.96-14.076-6.416-2.535-.217-4.599 3.861-6.653 4.01-1.587.114-2.927.367-3.859.802-3.891 1.815-2.149 6.194-6.345 7.103-2.047.444-4.37-.143-6.145.973-4.048 2.547-.351 7.758.574 10.874 1.32 4.452 1.156 9.152-1.269 13.221z" fill="#fff"/><path d="m318.168 15.7222c1.559.1479 4.296.1551 5.65.9411s2.273 2.7893 1.883 4.306c-.365 1.417-1.331 3.153-1.479 4.6073-.196 1.9445 3.628 3.8498 2.555 5.4824-.411.6256-2.163.5935-2.824.9411-4.089 2.153-3.506 8.2111-2.824 12.781.38 2.5451.038 6.0295 2.421 6.9955 1.086.4403 2.807-.4188 3.901 0 1.145.4385.958 1.4633 2.072 1.9784 2.48 1.1496 4.458-.8733 6.535-2.6521 2.078-1.7787 2.71-2.7554 4.305-4.978 1.595-2.2225 2.489-4.6037 5.112-5.3826 1.341-.3992 5.65-.6202 7.016-.9196 3.17-.6934 6.431-3.6734 9.392-5.0012 1.069-.4795 4.174-.3137 7.129-1.0765 3.333-.8591 6.56-2.661 8.019-3.3989 1.262-.6381 3.279.0339 4.086-1.7146 1.443-3.128-.46-4.5164-.269-5.2471.52-1.9837 3.337-1.1639 4.842-2.5559 2.668-2.4667 4.818-3.8337 5.515-7.4001.166-.8448-.608-2.5719-.269-3.3633.403-.94102 1.703-1.25292 2.421-1.3456 2.66-.34221 2.855-1.40625 5.515-1.74845 1.213-.15685 3.513-.27448 4.438-1.07652s1.26-1.55953.299-2.31701c-.388-.30656-.894-.40993-1.38-.50083-2.408-.45271-7.256.53113-11.022-1.08365-6.302-2.701984-14.47-1.803698-17.62-1.076514-4.021.928584-7.863-.003564-10.626.269134-2.917.28695-4.868 1.52209-7.263 1.61477-5.772.22279-7.094-.39211-8.743-.26913-1.847.13902-7.65 1.54527-8.474 1.61478-6.733.5739-4.873-.68263-11.433.94106-2.211.54717-4.779.95888-6.322 1.88391-1.236.73966-1.388 2.01401-3.362 2.42216-2.893.59886-6.277-.35824-8.743.67189-1.43.5989-1.391 2.1691-.269 3.6324.485.6327 1.13 1.2369 2.017 1.7484 2.352 1.36 5.094.0143 7.801.2692z" fill="#fff"/><path d="m385.665 38.2008c2.53-.1462 5.265.1515 7.189 1.8019.347 1.3456-.959 2.5826-2.277 3.021-1.319.4385-2.788.4527-3.995 1.1425-.654.3743-1.186.925-1.801 1.3617-2.598 1.8447-6.648 1.1389-8.469-1.4776-.322-.4651-.582-.9749-.948-1.408-.397-.4723-.91-.8377-1.297-1.3189-.386-.4812-.634-1.1514-.384-1.7164.814-1.8464 10.246-1.3064 11.982-1.408z" fill="#fff"/><path d="m436.728 79.645c1.862 1.3332 4.182 2.5149 4.761 4.7321.212.8127.055 1.8411-.693 2.2225-.453.2317-.998.164-1.484.3048-1.164.3368-1.654 1.6825-1.974 2.8517-.718 2.6093-1.438 5.2204-2.156 7.8297-.08.2923-.155.6292.016.8805.231.3386.734.294 1.137.2121 1.712-.3494 3.422-.7005 5.135-1.0498 2.464-.5044 4.956-1.0177 7.232-2.0889 2.277-1.0712 4.351-2.7733 5.368-5.0742.164-.3726.301-.795.167-1.1782-.326-.9303-1.762-.7646-2.474-1.4436-.533-.508-.524-1.3386-.652-2.064-.576-3.2384-4.307-5.0617-5.265-8.2093-.435-1.4276-.243-2.9604-.277-4.454-.032-1.4936-.377-3.1244-1.555-4.0405-1.24-.9642-2.992-.8341-4.531-.5187-6.01 1.2298-8.219 7.1774-2.753 11.0932z" fill="#fff"/><path d="m837.441 218.49c2.124 2.354-1.304 6.213-2.325 9.216-.344 1.011-.72 2.082-.483 3.123.426 1.869 2.571 2.755 4.465 3.049 1.896.294 3.991.364 5.416 1.649 1.424 1.285 1.125 4.334-.791 4.438-1.058.057-1.915-.799-2.881-1.237-1.529-.697-3.309-.33-4.974-.533-4.011-.487-6.947-4.335-7.717-8.302-.392-2.016-.861-10.204.973-11.756 1.947-1.649 6.738-1.396 8.317.353z" fill="#fff"/><path d="m840.094 121.241c-.811 1.043-2.033 2.296-1.37 3.439.328.566 1.008.8 1.614 1.048 3.104 1.27 5.545 4.061 6.39 7.309.844 3.247.073 6.874-2.019 9.496-.683.855-1.5 1.617-2.024 2.577-.533.977-.775 2.173-1.645 2.866-1.826 1.458-5.352-.103-6.434 1.968-.458.875-.153 2.021-.673 2.86-.454.733-1.372.99-2.156 1.35-2.763 1.274-4.349 4.673-3.549 7.61.798 2.937 3.888 5.064 6.915 4.762 3.07-.306 3.686-3.587 4.791-6.468.782-2.042 4.622.214 6.28-1.21.806-.691 1.07-1.807 1.349-2.832.28-1.025.704-2.133 1.65-2.614.946-.482 2.113-.049 3.079.392 1.386.632 5.174-.453 5.956-3.141.301-1.039.139-2.149-.025-3.219-.306-1.996-.613-3.992-.919-5.99-.461-3.01-1.023-6.227-3.145-8.411-.999-1.03-2.305-1.777-3.084-2.982-.779-1.204-.698-3.172.629-3.712.64-.26 1.416-.125 1.999-.496.782-.499.811-1.595.962-2.509.152-.914 1.279-.893 1.753-1.692 1.119-1.883-1.193-2.327-2.51-2.778-3.034-1.039-11.49-6.406-12.857-3.501-.889 1.893.383 4.155-.957 5.88z" fill="#fff"/><path d="m796.771 277.883c-1.65.8-3.407 1.568-4.551 3.001-1.847 2.317-1.562 5.623-1.136 8.555.222 1.536.468 3.1 1.147 4.495 1.065 2.189 3.088 3.747 5.14 5.055 4.61 2.935 10.147 5.078 15.485 3.908 1.921-.42 3.967-1.52 4.392-3.44.505-2.27-1.4-5.01.12-6.772.762-.884 2.143-1.088 2.802-2.05.749-1.091.289-2.759 1.191-3.723.711-.759 1.995-.759 2.669-1.551.445-.526.508-1.272.475-1.96-.162-3.479-2.186-6.907-1.295-10.274.741-2.798 3.371-5.76 1.684-8.111-.563-.784-1.488-1.21-2.37-1.604-6.71-2.989-7.7.811-12.155 5.037-4.018 3.814-8.618 7.011-13.602 9.432z" fill="#fff"/><path d="m835.407 282.383c-1.197-.301-2.466-.6-3.647-.239-.859.262-1.577.851-2.25 1.446-.881.779-1.745 1.62-2.251 2.68-.974 2.048-.44 4.511-1.115 6.677-.608 1.946-2.192 3.711-1.885 5.725.18 1.192 1.001 2.174 1.487 3.279.988 2.239-1.183 5.137.097 7.22 1.464 2.385 5.457-1.538 8.217-1.073.957.161 1.924.653 2.849.36 1.5-.475 1.68-2.523 1.402-4.074-.349-1.95-.964-3.853-1.136-5.826-.173-1.973.162-4.105 1.477-5.584.632-.711 1.461-1.239 2.025-2.004.92-1.242 1.027-2.939 1.926-4.193.547-.765 1.41-1.437 1.406-2.376-.005-.915-.905-1.62-1.812-1.738-2.437-.315-4.101.396-6.788-.278z" fill="#fff"/><path d="m866.92 294.643c1.46 1.953-.096 5.163 1.518 6.99.968 1.096 2.616 1.148 4.065 1.331 3.338.421 6.428 1.929 9.448 3.414 1.228.604 2.484 1.228 3.419 2.226 1.385 1.477 1.889 3.723 1.265 5.65-.285.884-.787 1.7-.96 2.613-.173.912.114 2.024.969 2.388.392.166.834.148 1.258.166 2.448.103 4.626 1.488 6.881 2.447 2.256.959 5.075 1.436 6.995-.086.95-.752 1.515-1.871 2.24-2.841.725-.969 1.78-1.862 2.988-1.788.761.047 1.441.471 2.054.924 1.121.827 2.142 1.789 3.031 2.862.627.756 1.19 1.567 1.878 2.267 1.955 1.987 4.716 2.907 7.369 3.761.962.31 1.96.624 2.967.519 1.007-.106 2.029-.744 2.254-1.731.237-1.046-.488-2.096-1.379-2.693s-1.95-.893-2.89-1.406c-1.958-1.072-3.334-3.141-3.562-5.362-.175-1.687.248-3.532-.608-4.999-.99-1.7-3.262-2.146-4.657-3.534-1.149-1.143-1.593-2.806-2.503-4.148-1.729-2.545-4.879-3.636-7.81-4.568-3.898-1.239-7.795-2.477-11.693-3.718-2.356-.748-4.845-1.506-7.263-.987-1.781.381-3.365 1.431-5.145 1.818s-4.054-.232-4.53-1.993c-.24-.893.043-1.875-.263-2.748-.474-1.349-2.103-1.857-3.525-2.018-1.999-.224-4.033-.133-6.004.271-.955.196-2.012.562-2.4 1.456-.852 1.963 3.74 2.376 4.592 3.517z" fill="#fff"/><path d="m755.114 268.125c.847.652 1.536 1.481 2.235 2.29 4.422 5.128 9.452 9.692 14.535 14.16 2.172 1.909 4.424 3.893 5.598 6.536.392.882.66 1.831 1.201 2.629.704 1.037 1.81 1.736 2.584 2.723 1.429 1.827 1.514 4.342 1.438 6.663-.061 1.809-.13 3.794.988 5.217.642.814 1.595 1.322 2.555 1.716 5.278 2.169 11.233 1.527 16.895 2.231 1.534.191 3.104.501 4.388 1.36 1.299.868 2.229 2.244 3.616 2.962.675.35 1.448.537 2.018 1.04.57.502.811 1.509.221 1.989-.207.169-.475.238-.737.297-6.343 1.449-12.925-.351-19.181-2.137-2.703-.772-5.407-1.543-8.11-2.315-1.763-.503-3.55-1.018-5.109-1.982-3.385-2.098-5.168-5.946-7.467-9.2-1.438-2.034-3.121-3.88-4.661-5.839-3.355-4.271-6.001-9.051-8.44-13.904-.732-1.456-1.472-2.955-2.651-4.08-.579-.552-1.258-1.007-1.761-1.63-.785-.983-1.053-2.278-1.694-3.362-1.39-2.347-4.328-3.393-5.833-5.668-.442-.668-.749-1.497-.523-2.265.795-2.681 6.563-.456 7.894.569z" fill="#fff"/><path d="m799.517 375.286c-.814 3.918-3.255 7.352-4.037 11.277-.864 4.329.367 8.76 1.163 13.104.797 4.343 1.066 9.168-1.402 12.829-1.149 1.704-2.936 3.504-2.289 5.454.556 1.675 2.608 2.272 4.368 2.386 4.51.291 7.783-2.436 12.038-4.079 2.858-1.106 8.78-.432 11.581-1.605 5.937-2.486 10.058-4.915 16.355-6.248 3.797-.804 7.521-4.089 11.531-.448 2.874 2.61 6.694 2.025 7.571 5.805.182.779-.479 3.715-.178 4.456 1.475 3.632 9.177 3.882 9.01 7.799-.041.977-.547 1.952-.278 2.891.308 1.079 1.482 1.624 2.541 1.989 5.719 1.977 11.888 2.647 17.899 1.947 4.025-.469 8.21-1.686 10.92-4.698 1.625-1.808 2.579-4.103 3.787-6.214 4.511-7.874 14.031-11.524 18.84-19.22 2.22-3.554 2.238-9.149 3.677-13.082.772-2.107 1.554-4.283 1.456-6.525-.25-5.784-5.992-9.707-8.182-15.064-.958-2.346-1.388-5.194-3.505-6.588-1.079-.711-2.453-.912-3.461-1.72-1.677-1.34-1.784-3.796-1.891-5.938-.132-2.651 1.053-6.057.501-8.652-1.009-4.746-4.235-8.582-6.562-12.84-.334-.611-.718-1.249-1.346-1.55-1.853-.891-3.201 1.722-3.903 3.655-.763 2.102-2.637 7.363-3.156 11.448-.415 3.269.768 5.556-1.324 6.579-1.756.857-3.622-1.473-5.434-2.207-2.07-.841-4.191-1.713-5.83-3.235-1.637-1.522-2.713-3.855-2.129-6.013.46-1.692 1.819-2.971 2.617-4.531.799-1.559.74-3.912-.876-4.588-.793-.331-1.693-.133-2.552-.071-4.559.335-8.983-3.276-13.389-2.062-3.227.889-5.235 4.097-6.406 7.233-.875 2.349-2.215 5.348-4.709 5.109-1.06-.101-1.942-.821-2.911-1.258-3.332-1.499-7.122.449-10.247 2.342-2.897 1.754-5.885 3.592-7.799 6.386-1.618 2.362-2.364 5.27-4.192 7.475-1.935 2.333-4.838 3.592-7.63 4.771-4.801 2.029-9.582 4.121-14.41 6.085-4.132 1.681-4.882 2.864-5.83 7.418z" fill="#fff"/><path d="m947.417 446.908c-1.678 1.467-3.43 2.973-5.572 3.592-1.434.413-2.966.401-4.395.836-1.342.41-2.532 1.194-3.701 1.971-2.76 1.832-5.52 3.664-8.279 5.497-1.098.729-2.287 1.586-2.556 2.876-.078.382-.057.813.193 1.112.278.334.752.412 1.183.464 3.597.433 7.421.602 10.662-1.021 1.404-.704 2.626-1.713 3.836-2.713 1.807-1.494 3.615-2.987 5.422-4.481.513-.424 1.039-.855 1.662-1.085.756-.28 1.586-.243 2.381-.367 5.37-.843 7.524-8.449 12.867-9.445 1.242-.232 2.532-.064 3.77-.315 4.111-.84 5.962-5.688 9.458-8.01 2.485-1.65 6.099-2.33 7.013-5.169.107-.333.167-.695.08-1.034-.403-1.577-2.838-.957-4.297-1.677-1.95-.96-1.501-3.791-1.962-5.915-.316-1.447-1.167-2.709-2.001-3.932-.262-.385-.545-.786-.966-.984-.869-.408-1.931.285-2.279 1.18-.347.895-.189 1.896-.041 2.845.567 3.621.79 7.73-1.575 10.531-1.421 1.686-3.593 2.629-4.932 4.383-.839 1.1-1.345 2.51-2.496 3.278-1.969 1.312-4.727.69-6.818 1.859-2.416 1.351-4.572 3.907-6.655 5.726z" fill="#fff"/><path d="m584.192 350.669c-1.44 1.793-1.552 4.306-1.287 6.591.266 2.285.841 4.577.533 6.855-.445 3.301-2.674 6.094-3.524 9.316-.87 3.299-.087 7.122 2.414 9.441 2.503 2.319 6.76 2.695 9.335.457 1.495-1.3 2.273-3.219 3-5.062 1.837-4.663 3.674-9.324 5.513-13.986 1.281-3.251 2.587-6.686 2.1-10.147-.149-1.067-.459-2.205-.007-3.183.396-.854 1.285-1.371 1.805-2.155.654-.987.643-2.256.61-3.441-.065-2.284-.13-4.569-.195-6.852-.033-1.162-.115-2.445-.939-3.265-1.021-1.019-2.808-.836-3.975.013-1.167.848-1.863 2.183-2.519 3.468-1.276 2.501-2.42 6.609-4.782 8.225-2.557 1.749-5.823 1.186-8.082 3.727z" fill="#fff"/><path d="m409.99 167.483c-1.205 3.01-3.637 6.742-5.091 9.64-3.255 6.486-9.678 8.539-14.001 14.369-7.517 10.138-5.555 21.78-6.364 34.376-.169 2.648-3.701 5.478-4.364 8.548-.662 3.069 1.54 6.377 2.406 8.884 1.27 3.686 6.957 4.864 9.231 8.03 2.585 3.596 2.667 9.184 5.272 13.278 2.715 4.267 7.979 7.013 12 9.277 2.605 1.465 6.163-2.736 11.455-2.911 6.787-.222 14.341 1.268 20.493-.422 3.632-.996 7.787-4.994 10.598-2.488 1.299 1.157 2.242 6.044 3.724 6.954 2.384 1.464 8.811-.449 11.369.687 4.396 1.949.17 8.949.134 13.759-.05 6.409 5.124 11.562 8.595 17.16 4.715 7.604 6.47 11.202 6.365 19.825-.038 3.028 3.579 6.405 2.909 10.004-1.22 6.555-5.894 8.256-7.091 13.642-.654 2.946-.67 6.338-.301 9.788.657 6.131 6.047 11.649 7.574 16.039 1.268 3.65 1.067 10.544 2.909 17.28.487 1.777 2.365 6.184 5.82 10.368 3.944 4.776 1.988 11.804 2.909 14.187.601 1.554.928 5.154 2.365 6.003 1.231.727 5.304 1.593 6.727 1.454 7.455-.727 26.365-5.821 31.003-11.733 5.635-7.185 7.244-16.855 12.851-24.061 1.807-2.323 4.084-4.374 5.153-7.117 2.031-5.212-.825-11.524 1.693-16.52 1.733-3.442 5.514-5.24 8.385-7.81 8.06-7.219 8.237-19.665 6.834-30.396-1.402-10.731-3.631-22.291 1.392-31.877 4.583-8.745 14.063-13.565 21.197-20.389 7.886-7.545 17.853-22.158 14.201-28.767-2.883-5.217-10.708.647-16.52 2.241-2.595.711-6.769-.309-9.235-1.382-1.6-.695-1.552-4.734-2.402-6.259-5.272-9.459-10.177-5.424-11.273-12.004-.909-5.456-5.13-11.127-6.546-12.731-3.036-3.442-1.454-8.003-1.636-8.366-2.774-5.552-7.636-10.732-9.09-16.553-1.037-4.153-1.673-8.305-2.91-12.367-.754-2.476-4.702-7.379-6.909-8.73-3.053-1.87-5.902 1.326-9.456.909-2.495-.292-10.683.2-14.546-4.001-4.182-4.547-11.273-3.456-14.365-1.091-1.152.882.045 4.509.225 5.949.533 4.249-7.665-3.135-11.498-5.04-4.549-2.262-9.573-.143-14.12-2.406-1.794-.893-3.8-2.055-4.148-4.03-.428-2.435 1.94-4.566 1.985-7.038.032-1.751.663-4.412-.807-5.26-1.91-1.103-6.247-.116-8.52-.061-1.461.036-5.453 1.328-7.664 1.334-4.739.012-8.627-1.173-13.455-.182-4.432.909-7.453 3.427-9.274 4.546-6.73 4.144-8.678-1.94-14.547.182-2.866 1.038-3.155 4.351-5.272 6.912-2.339 2.83-4.908 2.729-6.364 6.367z" fill="#fff"/><path d="m437.044 106.546c3.438-.834 4.732 1.909 6.553 4.944 1.912 3.183 2.58 3.962.387 6.739-.635.804-.977 3.297-2.709 3.556-2.355.351-5.732-.619-8.632-1.863-2.37-1.016-7.555 1.128-9.19 2.748-1.629 1.613-.911 5.982-1.814 8.089-2.031 4.741-3.001 12.093 2.2 13.208 1.098.236 4.886 5.894 8.633 3.217 1.185-.846 7.025-1.547 9.819-3.217s4.417-2.901 4.745-5.423c.24-1.845.88-5.436 2.533-7.108 1.752-1.77 4.542-1.586 5.586-2.371 1.776-1.333 2.254-5.266 4.062-6.603 2.523-1.864 4.799.242 7.617.169 1.88-.048 4.647-3.887 6.771-3.555 2.792.434 3.082 5.243 5.247 6.434 1.693.93 3.89 3.684 6.432 5.249 2.545 1.564 5.436 1.942 6.602 3.555.996 1.378 1.245 4.488-.508 5.249-2.233.968-6.896-.479-8.508.963-1.224 1.094 2.154 1.753 3.938 2.762 1.783 1.011 3.294 2.499 4.908 2.201 1.401-.508-1.573-2.846-.169-3.217 1.823-.483 3.38-1.509 4.062-3.047.328-.738-.627-3.03.677-4.572 1.862-2.201 3.724 1.355 4.74-.677 1.185-2.371-6.776-4.526-7.279-5.08-1.774-1.962-3.656-3.803-5.754-5.587-2.21-1.877-5.72-6.198-3.894-8.297 1.175-1.353 3.404 2.477 7.617 4.91 1.939 1.119 10.158 3.895 10.327 6.265.146 2.041.987 5.858 2.201 7.958 1.564 2.709 3.565 3.675 3.554 5.926-.005 1.308.476 2.925 1.354 3.895 2.965 3.27 4.25 3.106 6.491-.009 2.242-3.116-1.689-12.648 2.142-12.862 1.434-.08 3.818.377 4.739 2.71 1.037 2.625-.885 7.471 1.355 10.161 1.382 1.659 5.177.657 6.093 2.031 1.016 1.524 4.162.257 7.278.17 1.608-.045 4.592 4.067 6.94 2.37 3.047-2.201 6.349-1.042 6.94.508.62 1.622-.05 5.775-.508 7.45-1.022 3.745-3.041 7.678-2.539 11.346.838 6.112 4.69 10.577 7.787 16.257 1.167 2.14 6.252 5.81 7.447 12.193.763 4.063 3.555 9.483 8.125 13.547 4.629 4.115 5.069 11.954 7.36 16.126.779 1.417 1.572 4.806 3.136 5.21 5.248 1.355 5.991-2.135 7.787-2.54 6.77-1.524 12.019-2.878 17.436-8.974 2.134-2.402 7.447-2.069 9.819-4.233 4.05-3.698 10.273-11.618 10.157-17.103-.169-7.958-4.425-2.27-6.939-5.418-1.745-2.183-2.372-5.637-4.571-6.095-3.046-.637-4.046 2.479-7.153 2.639-1.543.08-4.595.87-5.711-.438-1.876-2.2-1.601-7.09-3.724-7.62-7.034-1.759-10.341-10.679-7.226-11.902 2.61-1.025 7.328 5.572 13.491 10.04 6.771 4.91 7.694.273 12.02 1.693 4.326 1.421-1.693 5.588 11.342 5.757 6.284.082 12.506-2.461 18.283.339 3.567 1.728 5.698 5.789 7.953 9.048 7.45 10.764 8.467 3.513 11.175 7.377 2.636 3.761 2.432 9.459 4.063 14.225 2.592 7.58 5.438 10.799 6.94 17.95.267 1.27 2.592 1.766 3.893 4.063 1.357 2.399 1.712 6.591 2.877 7.281 2.969 1.759 4.638-1.071 6.192-4.151 1.555-3.082 3.284-7.147 3.626-10.581.388-3.898-1.65-7.308-.339-10.839 1.23-3.308 4.624-4.083 7.279-6.942 3.616-3.894 6.952-9.628 11.342-12.023 1.862-1.016 3.083-4.025 5.247-4.233 3.89-.375 8.92-.079 9.312 3.047.338 2.71 4.91 6.426 6.093 9.823.67 1.925.022 5.571 1.075 7.314 4.172 6.909 5.55.302 7.727 1.321 2.963 1.387 6.721 7.407 8.125 12.87 1.463 5.688-1.502 7.669-.508 12.532.185.907 3.914 6.2 6.771 11.684 1.45 2.783.709 5.246 2.2 7.62 1.898 3.021 9.133 8.842 11.004 6.603 2.005-2.4-1-12.08-4.624-16.409-2.346-2.802-5.578-4.706-8.208-7.244s-3.688-8.04-2.74-11.569c.947-3.529 5.201-3.671 7.389-.743.741.991 2.271 2.659 2.767 3.793 1.644 3.76 4.93 8.505 8.124 7.788 2.354-.527 2.709-7.45 7.5-9.71 3.994-1.885 4.351-7.054 3.166-11.964-.777-3.223-6.017-5.657-7.779-7.716-.802-.937-1.23-4.27-2.039-5.322-2.43-3.155-4.782-4.372-2.854-7.534.905-1.484 3.088-4.151 4.716-4.151 2.021 0 5.012 5.239 7.109 4.741 3.591-.85 6.564-3.882 12.697-9.822 2.324-2.251 6.291-1.643 9.14-4.572 3.108-3.194 2.596-10.091 4.401-12.87 2.201-3.386 3.316-10.531.339-15.071-3.555-5.418-9.921-9.509-10.327-13.547-.226-2.257 4.305-3.444 5.416-5.419-.082-.98-3.08-3.245-5.924-3.386s-4.062 2.878-6.263 1.185c-1.022-.788-3.022-6.486-1.185-7.789 5.248-3.725 4.786 4.216 7.279 4.403s4.06-4.941 5.078-4.233c4.313 2.998 6.273 6.199 10.835 8.804 2.086 1.193 1.512 6.201 3.893 8.636 1.674 1.713 3.59 2.834 5.755 2.032 3.95-1.462 1.379-5.636-.955-9.144-1.036-1.556-1.107-3.748-2.771-5.42-2.086-2.096-5.636-3.698-4.909-5.926.608-1.859 3.216-.846 4.401-3.048 1.317-2.445-.778-4.129.17-4.91 2.877-2.37 6.419.194 7.109-1.185 1.719-3.44 4.242-6.664 4.57-9.484.636-5.443-1.099-11.246 1.354-12.362 2.186-.995 6.047 1.62 5.586 5.08-.339 2.539 2.861 6.407 4.739 4.91 2.259-1.798 2.226-6.406-1.651-9.546-4.106-3.3242-3.314-8.1792-7.829-10.7743-2.105-1.2102-6.094-4.0637-7.279-6.9421-2.079-5.0493-7.469.7789-9.778.3832-5.176-.8876-11.836-1.4686-13.413-6.4787-.738-2.3473 3.572-2.9782 3.724-5.2489.508-7.6194 5.669-3.4149 9.473-4.9459 9.996-4.0281 18.628 2.4061 21.675-1.1496 1.896-2.2119-2.669-5.2151-.846-7.2808 1.27-1.4401 4.896.9803 7.278 1.6932s6.676-.041 6.771 1.8625c.169 3.3864-3.658 6.6392-2.201 10.161 2.032 4.9103 7.382 10.6885 12.697 14.5633 2.657 1.9374 5.7 7.5374 8.125 7.4501 2.427-.0856 2.031-6.4342 2.2-9.653.196-3.7411-2.708-7.7888-3.554-11.0076-1.116-4.2419-7.794-4.8657-5.404-8.1095 2.863-3.8837 6.933-.426 9.466-2.0515 2.03-1.3029 4.545-4.9334 6.601-5.9262 2.16-1.0426 6.568-.7361 7.787-2.5398.983-1.4561-1.092-2.1869-3.386-3.0477-2.293-.8609-5.623-2.0354-4.739-3.5557 1.523-2.6254 5.878-3.2849 8.802-.8466 2.031 1.6932 9.112 3.2117 10.835 1.3545 1.412-1.5239-2.035-4.5092-5.925-6.9421-2.845-1.7805-9.496-1.6469-10.835-2.3705-4.725-2.5576-16.447-4.1385-31.656-7.7887-16.928-4.0637-19.615 3.128-31.148 0-4.426-1.2013-9.622-3.5913-15.236-4.5716-3.061-.5347-7.718 3.0709-13.374 1.1852-5.468-1.8233-18.959-5.4182-27.761-5.0796-6.606.2549-12.625 3.1957-16.42 2.8785-4.127-.344-7.947-3.0763-11.681-4.4024-5.248-1.8625-12.271-.1265-16.59-.5079-7.334-.647-13.438.786-20.483-1.3546-2.728-.8287-3.261-5.3362-6.771-7.1114-3.843-1.9445-10.672-1.1567-13.712-1.8625-6.32-1.4669-13.543-2.2012-18.452 1.1852-6.218 4.29-13.651 2.2208-20.483 4.4023-3.561 1.1371-5.715 4.643-9.649 6.0955-6.976 2.5791-14.719-1.6522-20.991.508-2.582.8894-3.204 5.8692-7.956 7.6194-2.619.9642-5.751.0196-8.971.8466-2.075.5329-4.03 3.0353-6.262 3.5557-3.291.7682-5.497-.9589-8.972-.508-2.763.3583-5.584 2.9908-8.463 3.3864-3.041.4189-5.856-2.2332-8.802-2.3704-1.168-.0553-2.982 2.2296-5.755 2.5398-2.772.3101-6.77-1.1853-8.801-2.2012-4.23-2.1156-7.404-2.3526-11.681-3.2171-3.578-.7236-5.431-2.955-9.312-3.725-2.003-.3975-4.299-.2656-6.601-.3386-2.616-.082-5.098-.4189-7.786-.3387-1.661.0499-2.424 1.032-4.232 1.6932-1.809.6613-4.959-.0838-6.601.8466-1.673.9464-2.889 3.0299-4.063 3.8944-2.742 2.0193-5.865 3.9371-9.311 7.6194-2.589 2.7679-4.08 6.2113-6.094 7.7887-4.212 3.299-8.235 2.4809-12.019 6.2648-2.878 2.8784.547 15.1746 5.585 13.3781 3.459-1.2334 5.078-2.9427 6.263-3.2171 2.272-.5276 3.223 1.875 6.263 7.958.846 1.6932-4.401 2.0318-2.708 4.741.267.4277 3.701.253 5.924-.508 1.687-.5775 2.165-1.6843 3.047-2.0318 1.226-.483 2.414.4384 3.385-.8466 1.308-1.7307.727-6.3682 1.693-7.7887 1.081-1.5917 4.043-.8663 4.57-2.5398 1.224-3.8873-4.308-5.5127-4.57-6.2649-.862-2.4774 1.185-6.0955 6.263-7.4501 2.612-.6968 3.342-4.8069 5.078-5.9261 1.78-1.1479 5.712-.6256 6.093.5079.431 1.2815-5.78 3.5611-8.125 7.1114-1.605 2.4311.107 6.0688 1.016 7.9581 1.094 2.2778 7.786 2.7091 6.771 6.0955-.733 2.4435-4.845 1.5025-6.094 3.725-1.267 2.2547-.57 5.4824-2.708 7.6194-1.862 1.8625-4.339.6648-6.601 1.5239-2.057.7806-4.731 2.4774-7.448 2.7091-1.743.1479-1.693-2.0318-3.893-2.2011-2.019-.1551-3.712 1.6718-5.247.8466-.462-.2478-2.593-1.1051-3.217-2.3705-.579-1.1781 1.276-2.5772 1.185-4.233-.107-1.9338-2.14-4.0512-2.708-4.0637-.579-.0125-2.934 2.2332-3.724 4.9103-.809 2.743.636 5.0047-.508 6.4341-1.3 1.6273-4.525 1.777-7.955 4.4023-.565.4314-.964 2.7003-4.062 4.741-1.11.7308-2.361 1.4455-3.724 2.2012-1.511.8359-2.261 1.9498-3.724 3.0477-2.708 2.0315-3.945.1105-5.755.6773-1.146.3582-2.101 2.2632-3.555 2.8782-1.983.838-4.47.499-5.585.339-1.185-.169-1.144.904-1.185 2.032-.041 1.135 1.265 2.117 2.539 2.032z" fill="#fff"/><path d="m423.228 87.855c-.136.9446-.742 1.7413-1.198 2.579s-.77 1.8874-.306 2.7216c.655 1.1834 2.414 1.1585 3.627.5614 1.216-.5971 2.249-1.5916 3.564-1.9107 1.283-.3119 2.86-.0089 3.745-.9891.939-1.0409.367-2.7448.919-4.0334.533-1.2441 2.064-1.973 2.247-3.3151.134-.9821-.563-1.9249-1.438-2.3919-.873-.4669-1.89-.5596-2.877-.6434-.948-.0802-1.976-.1426-2.774.3761-.604.3939-.97 1.0551-1.46 1.5845-1.042 1.1264-2.323.7788-3.408 1.4793-1.295.8341-.467 2.7626-.641 3.9817z" fill="#fff"/><g stroke="#2f2e0c"><path d="m66 133.502c22-9.501 46.5 11.499 49 32.999" stroke-dasharray="4 6"/><path d="m484 125.001c-16-12-40.5-3.5-48 17.794" stroke-dasharray="4 6"/><path d="m578 166c-9.5-7-33-4.001-39 13.792" stroke-dasharray="4 6"/><path d="m578 165.497c0-17.499-20.5-41.997-49-29.497" stroke-dasharray="4 6"/><path d="m450 265.501c8-38.501 4-69.001-25-87.708" stroke-dasharray="4 6"/><path d="m705 205.5c-14.5 2.497-21.5 16-18 35.001" stroke-dasharray="4 6"/><path d="m670 157.999c-10-7.999-28-6.999-36 4.795" stroke-dasharray="4 6"/><path d="m784 310.998c1-27.498-4-41.291-21-46.998" stroke-dasharray="4 6"/><path d="m832 233.002c-13-16.002-44-17.001-56 .792" stroke-dasharray="4 6"/><path d="m794 192.003c-18-27.003-87-28.002-110 4.997" stroke-dasharray="4 6"/><path d="m916 317.999c-28-34.999-90-39.499-132-7.001" stroke-dasharray="4 6"/><path d="m855 149.069c-6-9.069-24.5-12.569-36 .001" stroke-dasharray="4 6"/><path d="m786 133.999c-7.5 3.001-13.5 10.001-11 27.071" stroke-dasharray="4 6"/><path d="m808 169c-5-10-20.5-16.499-33-7.929" stroke-dasharray="4 6"/><path d="m918 384.499c-12.5-1.5-28 10.501-25 35.5" stroke-dasharray="4 6"/><path d="m968 436.998c-4.5-29.998-44-39.998-60-29.001" stroke-dasharray="4 6"/><path d="m595 363.001c-53-5-90 32.999-93 55.998" stroke-dasharray="4 6"/><path d="m463 91c-2.5-1.9998-10.5-3.7879-16 1" stroke-dasharray="4 6"/><path d="m490 113.001c-4.5-5.501-14-6.001-18-2.208" stroke-dasharray="4 6"/><path d="m490 72.002c-11.5 3.498-16.5 16.498-15 24.4991" stroke-dasharray="4 6"/><path d="m506 115.999c2.5-10.999 3-22.999-5-30.999" stroke-dasharray="4 6"/><path d="m436 142.501c0-6.501-4.5-11.707-12-11.706" stroke-dasharray="4 6"/><path d="m514 78.9939c-3-14.9939-20-26.9943-41-16.9964" stroke-dasharray="4 6"/><path d="m428 87.9924c-6.5-34.9924-24-44.4917-45-44.4924" stroke-dasharray="4 6"/><path d="m137 174.002c-2.5-21.501 14.5-32.501 31-29.501" stroke-dasharray="4 6"/><path d="m153 169.5c1.5 11.998-18 27-30.866 21.861" stroke-dasharray="4 6"/><path d="m586 225.996c23.5-26.996 71.5-22.496 90-3.497" stroke-dasharray="4 6"/><path d="m187 186.999c10.5-3.499 27 8.001 28 28.501" stroke-dasharray="4 6"/><path d="m199 266c4-10.5 12-13 19-10.501" stroke-dasharray="4 6"/><path d="m199 127.001c0-10.499 10.5-21.5 24.001-18.502" stroke-dasharray="4 6"/><path d="m199 126.998c4.5-1.998 12.5 2.002 14 9.002" stroke-dasharray="4 6"/><path d="m116 214.001c9.5-7 28 0 30 9.5" stroke-dasharray="4 6"/><path d="m163.5 234c17.5 8.5 28.5 30.5 22 65.5" stroke-dasharray="4 6"/><path d="m20.0001 221.002c-3.0001-26.001 23-63.501 49.0001-66.503" stroke-dasharray="4 6"/><path d="m199 343.002c40-16.501 83.5 3.158 104.5 29" stroke-dasharray="4 6"/><path d="m226 413.001c0-15.5 13.5-36.001 38-33" stroke-dasharray="4 6"/></g><path d="m158 163.924c0 3.576-5 7.076-5 7.076s-5-3.5-5-7.076c0-2.719 2.239-4.924 5-4.924s5 2.205 5 4.924z" fill="#2f2e0c"/><circle cx="153" cy="164" fill="#fff" r="2.5" stroke="#2f2e0c"/><path d="m142 167.924c0 3.576-5 7.076-5 7.076s-5-3.5-5-7.076c0-2.719 2.239-4.924 5-4.924s5 2.205 5 4.924z" fill="#2f2e0c"/><circle cx="137" cy="168" fill="#fff" r="2.5" stroke="#2f2e0c"/><path d="m74 147.924c0 3.576-5 7.076-5 7.076s-5-3.5-5-7.076c0-2.719 2.2386-4.924 5-4.924s5 2.205 5 4.924z" fill="#2f2e0c"/><circle cx="69" cy="148" fill="#fff" r="2.5" stroke="#2f2e0c"/><path d="m71 126.924c0 3.576-5 7.076-5 7.076s-5-3.5-5-7.076c0-2.719 2.2386-4.924 5-4.924s5 2.205 5 4.924z" fill="#2f2e0c"/><circle cx="66" cy="127" fill="#fff" r="2.5" stroke="#2f2e0c"/><path d="m97 86.9239c0 3.5761-5 7.0761-5 7.0761s-5-3.5-5-7.0761c0-2.7194 2.2386-4.9239 5-4.9239s5 2.2045 5 4.9239z" fill="#2f2e0c"/><circle cx="92" cy="87" fill="#fff" r="2.5" stroke="#2f2e0c"/><path d="m228 101.924c0 3.576-5 7.076-5 7.076s-5-3.5-5-7.076c0-2.7195 2.239-4.924 5-4.924s5 2.2045 5 4.924z" fill="#2f2e0c"/><circle cx="223" cy="102" fill="#fff" r="2.5" stroke="#2f2e0c"/><path d="m452 85.9239c0 3.5761-5 7.0761-5 7.0761s-5-3.5-5-7.0761c0-2.7194 2.239-4.9239 5-4.9239s5 2.2045 5 4.9239z" fill="#2f2e0c"/><circle cx="447" cy="86" fill="#fff" r="2.5" stroke="#2f2e0c"/><path d="m433 80.9239c0 3.5761-5 7.0761-5 7.0761s-5-3.5-5-7.0761c0-2.7194 2.239-4.9239 5-4.9239s5 2.2045 5 4.9239z" fill="#2f2e0c"/><circle cx="428" cy="81" fill="#fff" r="2.5" stroke="#2f2e0c"/><path d="m388 36.9239c0 3.5761-5 7.0761-5 7.0761s-5-3.5-5-7.0761c0-2.7194 2.239-4.9239 5-4.9239s5 2.2045 5 4.9239z" fill="#2f2e0c"/><circle cx="383" cy="37" fill="#fff" r="2.5" stroke="#2f2e0c"/><path d="m478 55.9239c0 3.5761-5 7.0761-5 7.0761s-5-3.5-5-7.0761c0-2.7194 2.239-4.9239 5-4.9239s5 2.2045 5 4.9239z" fill="#2f2e0c"/><circle cx="473" cy="56" fill="#fff" r="2.5" stroke="#2f2e0c"/><path d="m429 124.924c0 3.576-5 7.076-5 7.076s-5-3.5-5-7.076c0-2.719 2.239-4.924 5-4.924s5 2.205 5 4.924z" fill="#2f2e0c"/><circle cx="424" cy="125" fill="#fff" r="2.5" stroke="#2f2e0c"/><path d="m441 136.924c0 3.576-5 7.076-5 7.076s-5-3.5-5-7.076c0-2.719 2.239-4.924 5-4.924s5 2.205 5 4.924z" fill="#2f2e0c"/><circle cx="436" cy="137" fill="#fff" r="2.5" stroke="#2f2e0c"/><path d="m459 102.924c0 3.576-5 7.076-5 7.076s-5-3.5-5-7.076c0-2.719 2.239-4.924 5-4.924s5 2.205 5 4.924z" fill="#2f2e0c"/><circle cx="454" cy="103" fill="#fff" r="2.5" stroke="#2f2e0c"/><path d="m480 89.9239c0 3.5761-5 7.0761-5 7.0761s-5-3.5-5-7.0761c0-2.7194 2.239-4.9239 5-4.9239s5 2.2045 5 4.9239z" fill="#2f2e0c"/><circle cx="475" cy="90" fill="#fff" r="2.5" stroke="#2f2e0c"/><path d="m477 104.924c0 3.576-5 7.076-5 7.076s-5-3.5-5-7.076c0-2.719 2.239-4.924 5-4.924s5 2.205 5 4.924z" fill="#2f2e0c"/><circle cx="472" cy="105" fill="#fff" r="2.5" stroke="#2f2e0c"/><path d="m468 84.9239c0 3.5761-5 7.0761-5 7.0761s-5-3.5-5-7.0761c0-2.7194 2.239-4.9239 5-4.9239s5 2.2045 5 4.9239z" fill="#2f2e0c"/><circle cx="463" cy="85" fill="#fff" r="2.5" stroke="#2f2e0c"/><path d="m495 65.9239c0 3.5761-5 7.0761-5 7.0761s-5-3.5-5-7.0761c0-2.7194 2.239-4.9239 5-4.9239s5 2.2045 5 4.9239z" fill="#2f2e0c"/><circle cx="490" cy="66" fill="#fff" r="2.5" stroke="#2f2e0c"/><path d="m516 54.9239c0 3.5761-5 7.0761-5 7.0761s-5-3.5-5-7.0761c0-2.7194 2.239-4.9239 5-4.9239s5 2.2045 5 4.9239z" fill="#2f2e0c"/><circle cx="511" cy="55" fill="#fff" r="2.5" stroke="#2f2e0c"/><path d="m519 72.9239c0 3.5761-5 7.0761-5 7.0761s-5-3.5-5-7.0761c0-2.7194 2.239-4.9239 5-4.9239s5 2.2045 5 4.9239z" fill="#2f2e0c"/><circle cx="514" cy="73" fill="#fff" r="2.5" stroke="#2f2e0c"/><path d="m506 78.9239c0 3.5761-5 7.0761-5 7.0761s-5-3.5-5-7.0761c0-2.7194 2.239-4.9239 5-4.9239s5 2.2045 5 4.9239z" fill="#2f2e0c"/><circle cx="501" cy="79" fill="#fff" r="2.5" stroke="#2f2e0c"/><path d="m489 118.924c0 3.576-5 7.076-5 7.076s-5-3.5-5-7.076c0-2.719 2.239-4.924 5-4.924s5 2.205 5 4.924z" fill="#2f2e0c"/><circle cx="484" cy="119" fill="#fff" r="2.5" stroke="#2f2e0c"/><path d="m511 109.924c0 3.576-5 7.076-5 7.076s-5-3.5-5-7.076c0-2.719 2.239-4.924 5-4.924s5 2.205 5 4.924z" fill="#2f2e0c"/><circle cx="506" cy="110" fill="#fff" r="2.5" stroke="#2f2e0c"/><path d="m495 106.924c0 3.576-5 7.076-5 7.076s-5-3.5-5-7.076c0-2.719 2.239-4.924 5-4.924s5 2.205 5 4.924z" fill="#2f2e0c"/><circle cx="490" cy="107" fill="#fff" r="2.5" stroke="#2f2e0c"/><path d="m534 129.924c0 3.576-5 7.076-5 7.076s-5-3.5-5-7.076c0-2.719 2.239-4.924 5-4.924s5 2.205 5 4.924z" fill="#2f2e0c"/><circle cx="529" cy="130" fill="#fff" r="2.5" stroke="#2f2e0c"/><path d="m455 258.924c0 3.576-5 7.076-5 7.076s-5-3.5-5-7.076c0-2.719 2.239-4.924 5-4.924s5 2.205 5 4.924z" fill="#2f2e0c"/><circle cx="450" cy="259" fill="#fff" r="2.5" stroke="#2f2e0c"/><path d="m507 412.924c0 3.576-5 7.076-5 7.076s-5-3.5-5-7.076c0-2.719 2.239-4.924 5-4.924s5 2.205 5 4.924z" fill="#2f2e0c"/><circle cx="502" cy="413" fill="#fff" r="2.5" stroke="#2f2e0c"/><path d="m600 356.924c0 3.576-5 7.076-5 7.076s-5-3.5-5-7.076c0-2.719 2.239-4.924 5-4.924s5 2.205 5 4.924z" fill="#2f2e0c"/><circle cx="595" cy="357" fill="#fff" r="2.5" stroke="#2f2e0c"/><path d="m430 171.924c0 3.576-5 7.076-5 7.076s-5-3.5-5-7.076c0-2.719 2.239-4.924 5-4.924s5 2.205 5 4.924z" fill="#2f2e0c"/><circle cx="425" cy="172" fill="#fff" r="2.5" stroke="#2f2e0c"/><path d="m544 173.924c0 3.576-5 7.076-5 7.076s-5-3.5-5-7.076c0-2.719 2.239-4.924 5-4.924s5 2.205 5 4.924z" fill="#2f2e0c"/><circle cx="539" cy="174" fill="#fff" r="2.5" stroke="#2f2e0c"/><path d="m681 216.924c0 3.576-5 7.076-5 7.076s-5-3.5-5-7.076c0-2.719 2.239-4.924 5-4.924s5 2.205 5 4.924z" fill="#2f2e0c"/><circle cx="676" cy="217" fill="#fff" r="2.5" stroke="#2f2e0c"/><path d="m692 234.924c0 3.576-5 7.076-5 7.076s-5-3.5-5-7.076c0-2.719 2.239-4.924 5-4.924s5 2.205 5 4.924z" fill="#2f2e0c"/><circle cx="687" cy="235" fill="#fff" r="2.5" stroke="#2f2e0c"/><path d="m689 190.924c0 3.576-5 7.076-5 7.076s-5-3.5-5-7.076c0-2.719 2.239-4.924 5-4.924s5 2.205 5 4.924z" fill="#2f2e0c"/><circle cx="684" cy="191" fill="#fff" r="2.5" stroke="#2f2e0c"/><path d="m583 159.924c0 3.576-5 7.076-5 7.076s-5-3.5-5-7.076c0-2.719 2.239-4.924 5-4.924s5 2.205 5 4.924z" fill="#2f2e0c"/><circle cx="578" cy="160" fill="#fff" r="2.5" stroke="#2f2e0c"/><path d="m591 219.924c0 3.576-5 7.076-5 7.076s-5-3.5-5-7.076c0-2.719 2.239-4.924 5-4.924s5 2.205 5 4.924z" fill="#2f2e0c"/><circle cx="586" cy="220" fill="#fff" r="2.5" stroke="#2f2e0c"/><path d="m582 277.924c0 3.576-5 7.076-5 7.076s-5-3.5-5-7.076c0-2.719 2.239-4.924 5-4.924s5 2.205 5 4.924z" fill="#2f2e0c"/><circle cx="577" cy="278" fill="#fff" r="2.5" stroke="#2f2e0c"/><path d="m496 382.924c0 3.576-5 7.076-5 7.076s-5-3.5-5-7.076c0-2.719 2.239-4.924 5-4.924s5 2.205 5 4.924z" fill="#2f2e0c"/><circle cx="491" cy="383" fill="#fff" r="2.5" stroke="#2f2e0c"/><path d="m639 156.924c0 3.576-5 7.076-5 7.076s-5-3.5-5-7.076c0-2.719 2.239-4.924 5-4.924s5 2.205 5 4.924z" fill="#2f2e0c"/><circle cx="634" cy="157" fill="#fff" r="2.5" stroke="#2f2e0c"/><path d="m675 151.924c0 3.576-5 7.076-5 7.076s-5-3.5-5-7.076c0-2.719 2.239-4.924 5-4.924s5 2.205 5 4.924z" fill="#2f2e0c"/><circle cx="670" cy="152" fill="#fff" r="2.5" stroke="#2f2e0c"/><path d="m759 223.924c0 3.576-5 7.076-5 7.076s-5-3.5-5-7.076c0-2.719 2.239-4.924 5-4.924s5 2.205 5 4.924z" fill="#2f2e0c"/><circle cx="754" cy="224" fill="#fff" r="2.5" stroke="#2f2e0c"/><path d="m768 257.924c0 3.576-5 7.076-5 7.076s-5-3.5-5-7.076c0-2.719 2.239-4.924 5-4.924s5 2.205 5 4.924z" fill="#2f2e0c"/><circle cx="763" cy="258" fill="#fff" r="2.5" stroke="#2f2e0c"/><path d="m921 311.924c0 3.576-5 7.076-5 7.076s-5-3.5-5-7.076c0-2.719 2.239-4.924 5-4.924s5 2.205 5 4.924z" fill="#2f2e0c"/><circle cx="916" cy="312" fill="#fff" r="2.5" stroke="#2f2e0c"/><path d="m789 304.924c0 3.576-5 7.076-5 7.076s-5-3.5-5-7.076c0-2.719 2.239-4.924 5-4.924s5 2.205 5 4.924z" fill="#2f2e0c"/><circle cx="784" cy="305" fill="#fff" r="2.5" stroke="#2f2e0c"/><path d="m913 401.924c0 3.576-5 7.076-5 7.076s-5-3.5-5-7.076c0-2.719 2.239-4.924 5-4.924s5 2.205 5 4.924z" fill="#2f2e0c"/><circle cx="908" cy="402" fill="#fff" r="2.5" stroke="#2f2e0c"/><path d="m973 430.924c0 3.576-5 7.076-5 7.076s-5-3.5-5-7.076c0-2.719 2.239-4.924 5-4.924s5 2.205 5 4.924z" fill="#2f2e0c"/><circle cx="968" cy="431" fill="#fff" r="2.5" stroke="#2f2e0c"/><path d="m923 377.924c0 3.576-5 7.076-5 7.076s-5-3.5-5-7.076c0-2.719 2.239-4.924 5-4.924s5 2.205 5 4.924z" fill="#2f2e0c"/><circle cx="918" cy="378" fill="#fff" r="2.5" stroke="#2f2e0c"/><path d="m837 226.924c0 3.576-5 7.076-5 7.076s-5-3.5-5-7.076c0-2.719 2.239-4.924 5-4.924s5 2.205 5 4.924z" fill="#2f2e0c"/><circle cx="832" cy="227" fill="#fff" r="2.5" stroke="#2f2e0c"/><path d="m860 142.924c0 3.576-5 7.076-5 7.076s-5-3.5-5-7.076c0-2.719 2.239-4.924 5-4.924s5 2.205 5 4.924z" fill="#2f2e0c"/><circle cx="855" cy="143" fill="#fff" r="2.5" stroke="#2f2e0c"/><path d="m849 150.924c0 3.576-5 7.076-5 7.076s-5-3.5-5-7.076c0-2.719 2.239-4.924 5-4.924s5 2.205 5 4.924z" fill="#2f2e0c"/><circle cx="844" cy="151" fill="#fff" r="2.5" stroke="#2f2e0c"/><path d="m824 142.924c0 3.576-5 7.076-5 7.076s-5-3.5-5-7.076c0-2.719 2.239-4.924 5-4.924s5 2.205 5 4.924z" fill="#2f2e0c"/><circle cx="819" cy="143" fill="#fff" r="2.5" stroke="#2f2e0c"/><path d="m791 127.924c0 3.576-5 7.076-5 7.076s-5-3.5-5-7.076c0-2.719 2.239-4.924 5-4.924s5 2.205 5 4.924z" fill="#2f2e0c"/><circle cx="786" cy="128" fill="#fff" r="2.5" stroke="#2f2e0c"/><path d="m780 154.924c0 3.576-5 7.076-5 7.076s-5-3.5-5-7.076c0-2.719 2.239-4.924 5-4.924s5 2.205 5 4.924z" fill="#2f2e0c"/><circle cx="775" cy="155" fill="#fff" r="2.5" stroke="#2f2e0c"/><path d="m799 185.924c0 3.576-5 7.076-5 7.076s-5-3.5-5-7.076c0-2.719 2.239-4.924 5-4.924s5 2.205 5 4.924z" fill="#2f2e0c"/><circle cx="794" cy="186" fill="#fff" r="2.5" stroke="#2f2e0c"/><path d="m813 162.924c0 3.576-5 7.076-5 7.076s-5-3.5-5-7.076c0-2.719 2.239-4.924 5-4.924s5 2.205 5 4.924z" fill="#2f2e0c"/><circle cx="808" cy="163" fill="#fff" r="2.5" stroke="#2f2e0c"/><path d="m898 413.924c0 3.576-5 7.076-5 7.076s-5-3.5-5-7.076c0-2.719 2.239-4.924 5-4.924s5 2.205 5 4.924z" fill="#2f2e0c"/><circle cx="893" cy="414" fill="#fff" r="2.5" stroke="#2f2e0c"/><path d="m781 227.924c0 3.576-5 7.076-5 7.076s-5-3.5-5-7.076c0-2.719 2.239-4.924 5-4.924s5 2.205 5 4.924z" fill="#2f2e0c"/><circle cx="776" cy="228" fill="#fff" r="2.5" stroke="#2f2e0c"/><path d="m710 198.924c0 3.576-5 7.076-5 7.076s-5-3.5-5-7.076c0-2.719 2.239-4.924 5-4.924s5 2.205 5 4.924z" fill="#2f2e0c"/><circle cx="705" cy="199" fill="#fff" r="2.5" stroke="#2f2e0c"/><path d="m218 129.924c0 3.576-5 7.076-5 7.076s-5-3.5-5-7.076c0-2.719 2.239-4.924 5-4.924s5 2.205 5 4.924z" fill="#2f2e0c"/><circle cx="213" cy="130" fill="#fff" r="2.5" stroke="#2f2e0c"/><path d="m204 120.924c0 3.576-5 7.076-5 7.076s-5-3.5-5-7.076c0-2.719 2.239-4.924 5-4.924s5 2.205 5 4.924z" fill="#2f2e0c"/><circle cx="199" cy="121" fill="#fff" r="2.5" stroke="#2f2e0c"/><path d="m120 159.924c0 3.576-5 7.076-5 7.076s-5-3.5-5-7.076c0-2.719 2.239-4.924 5-4.924s5 2.205 5 4.924z" fill="#2f2e0c"/><circle cx="115" cy="160" fill="#fff" r="2.5" stroke="#2f2e0c"/><path d="m121 207.924c0 3.576-5 7.076-5 7.076s-5-3.5-5-7.076c0-2.719 2.239-4.924 5-4.924s5 2.205 5 4.924z" fill="#2f2e0c"/><circle cx="116" cy="208" fill="#fff" r="2.5" stroke="#2f2e0c"/><path d="m127 184.924c0 3.576-5 7.076-5 7.076s-5-3.5-5-7.076c0-2.719 2.239-4.924 5-4.924s5 2.205 5 4.924z" fill="#2f2e0c"/><circle cx="122" cy="185" fill="#fff" r="2.5" stroke="#2f2e0c"/><path d="m151 216.924c0 3.576-5 7.076-5 7.076s-5-3.5-5-7.076c0-2.719 2.239-4.924 5-4.924s5 2.205 5 4.924z" fill="#2f2e0c"/><circle cx="146" cy="217" fill="#fff" r="2.5" stroke="#2f2e0c"/><path d="m169 227.924c0 3.576-5 7.076-5 7.076s-5-3.5-5-7.076c0-2.719 2.239-4.924 5-4.924s5 2.205 5 4.924z" fill="#2f2e0c"/><circle cx="164" cy="228" fill="#fff" r="2.5" stroke="#2f2e0c"/><path d="m220 208.924c0 3.576-5 7.076-5 7.076s-5-3.5-5-7.076c0-2.719 2.239-4.924 5-4.924s5 2.205 5 4.924z" fill="#2f2e0c"/><circle cx="215" cy="209" fill="#fff" r="2.5" stroke="#2f2e0c"/><path d="m237 210.924c0 3.576-5 7.076-5 7.076s-5-3.5-5-7.076c0-2.719 2.239-4.924 5-4.924s5 2.205 5 4.924z" fill="#2f2e0c"/><circle cx="232" cy="211" fill="#fff" r="2.5" stroke="#2f2e0c"/><path d="m25 214.924c0 3.576-5 7.076-5 7.076s-5-3.5-5-7.076c0-2.719 2.2386-4.924 5-4.924s5 2.205 5 4.924z" fill="#2f2e0c"/><circle cx="20" cy="215" fill="#fff" r="2.5" stroke="#2f2e0c"/><path d="m204 259.924c0 3.576-5 7.076-5 7.076s-5-3.5-5-7.076c0-2.719 2.239-4.924 5-4.924s5 2.205 5 4.924z" fill="#2f2e0c"/><circle cx="199" cy="260" fill="#fff" r="2.5" stroke="#2f2e0c"/><path d="m204 336.924c0 3.576-5 7.076-5 7.076s-5-3.5-5-7.076c0-2.719 2.239-4.924 5-4.924s5 2.205 5 4.924z" fill="#2f2e0c"/><circle cx="199" cy="337" fill="#fff" r="2.5" stroke="#2f2e0c"/><path d="m309 366.924c0 3.576-5 7.076-5 7.076s-5-3.5-5-7.076c0-2.719 2.239-4.924 5-4.924s5 2.205 5 4.924z" fill="#2f2e0c"/><circle cx="304" cy="367" fill="#fff" r="2.5" stroke="#2f2e0c"/><path d="m293 374.924c0 3.576-5 7.076-5 7.076s-5-3.5-5-7.076c0-2.719 2.239-4.924 5-4.924s5 2.205 5 4.924z" fill="#2f2e0c"/><circle cx="288" cy="375" fill="#fff" r="2.5" stroke="#2f2e0c"/><path d="m278 411.924c0 3.576-5 7.076-5 7.076s-5-3.5-5-7.076c0-2.719 2.239-4.924 5-4.924s5 2.205 5 4.924z" fill="#2f2e0c"/><circle cx="273" cy="412" fill="#fff" r="2.5" stroke="#2f2e0c"/><path d="m231 406.924c0 3.576-5 7.076-5 7.076s-5-3.5-5-7.076c0-2.719 2.239-4.924 5-4.924s5 2.205 5 4.924z" fill="#2f2e0c"/><circle cx="226" cy="407" fill="#fff" r="2.5" stroke="#2f2e0c"/><path d="m190 293.924c0 3.576-5 7.076-5 7.076s-5-3.5-5-7.076c0-2.719 2.239-4.924 5-4.924s5 2.205 5 4.924z" fill="#2f2e0c"/><circle cx="185" cy="294" fill="#fff" r="2.5" stroke="#2f2e0c"/><path d="m223 248.924c0 3.576-5 7.076-5 7.076s-5-3.5-5-7.076c0-2.719 2.239-4.924 5-4.924s5 2.205 5 4.924z" fill="#2f2e0c"/><circle cx="218" cy="249" fill="#fff" r="2.5" stroke="#2f2e0c"/><path d="m269 373.924c0 3.576-5 7.076-5 7.076s-5-3.5-5-7.076c0-2.719 2.239-4.924 5-4.924s5 2.205 5 4.924z" fill="#2f2e0c"/><circle cx="264" cy="374" fill="#fff" r="2.5" stroke="#2f2e0c"/><path d="m184 158.924c0 3.576-5 7.076-5 7.076s-5-3.5-5-7.076c0-2.719 2.239-4.924 5-4.924s5 2.205 5 4.924z" fill="#2f2e0c"/><circle cx="179" cy="159" fill="#fff" r="2.5" stroke="#2f2e0c"/><path d="m192 180.924c0 3.576-5 7.076-5 7.076s-5-3.5-5-7.076c0-2.719 2.239-4.924 5-4.924s5 2.205 5 4.924z" fill="#2f2e0c"/><circle cx="187" cy="181" fill="#fff" r="2.5" stroke="#2f2e0c"/><path d="m192 140.924c0 3.576-5 7.076-5 7.076s-5-3.5-5-7.076c0-2.719 2.239-4.924 5-4.924s5 2.205 5 4.924z" fill="#2f2e0c"/><circle cx="187" cy="141" fill="#fff" r="2.5" stroke="#2f2e0c"/><path d="m210 145.924c0 3.576-5 7.076-5 7.076s-5-3.5-5-7.076c0-2.719 2.239-4.924 5-4.924s5 2.205 5 4.924z" fill="#2f2e0c"/><circle cx="205" cy="146" fill="#fff" r="2.5" stroke="#2f2e0c"/><path d="m173 137.924c0 3.576-5 7.076-5 7.076s-5-3.5-5-7.076c0-2.719 2.239-4.924 5-4.924s5 2.205 5 4.924z" fill="#2f2e0c"/><circle cx="168" cy="138" fill="#fff" r="2.5" stroke="#2f2e0c"/></svg>