<svg width="28" height="28" viewBox="0 0 28 28" fill="none" xmlns="http://www.w3.org/2000/svg">

<g clip-path="url(#clip0_14194_1185)">

<path d="M9.66782 0H3.23745C1.45207 0 -0.000488281 1.45255 -0.000488281 3.23794V9.66831C-0.000488281 11.4537 1.45207 12.9062 3.23745 12.9062H9.66782C11.4532 12.9062 12.9058 11.4537 12.9058 9.66831V3.23794C12.9058 1.45255 11.4532 0 9.66782 0ZM10.7183 9.66831C10.7183 10.2475 10.247 10.7188 9.66782 10.7188H3.23745C2.65825 10.7188 2.18701 10.2475 2.18701 9.66831V3.23794C2.18701 2.65874 2.65825 2.1875 3.23745 2.1875H9.66782C10.247 2.1875 10.7183 2.65874 10.7183 3.23794V9.66831Z" fill="#FFF"/>

<path d="M24.7183 0H18.3745C16.5652 0 15.0933 1.47197 15.0933 3.28125V9.625C15.0933 11.4343 16.5652 12.9062 18.3745 12.9062H24.7183C26.5275 12.9062 27.9995 11.4343 27.9995 9.625V3.28125C27.9995 1.47197 26.5275 0 24.7183 0ZM25.812 9.625C25.812 10.2281 25.3214 10.7188 24.7183 10.7188H18.3745C17.7714 10.7188 17.2808 10.2281 17.2808 9.625V3.28125C17.2808 2.67816 17.7714 2.1875 18.3745 2.1875H24.7183C25.3214 2.1875 25.812 2.67816 25.812 3.28125V9.625Z" fill="#FFF"/>

<path d="M9.66782 15.0938H3.23745C1.45207 15.0938 -0.000488281 16.5463 -0.000488281 18.3317V24.7621C-0.000488281 26.5474 1.45207 28 3.23745 28H9.66782C11.4532 28 12.9058 26.5474 12.9058 24.7621V18.3317C12.9058 16.5463 11.4532 15.0938 9.66782 15.0938ZM10.7183 24.7621C10.7183 25.3413 10.247 25.8125 9.66782 25.8125H3.23745C2.65825 25.8125 2.18701 25.3413 2.18701 24.7621V18.3317C2.18701 17.7525 2.65825 17.2812 3.23745 17.2812H9.66782C10.247 17.2812 10.7183 17.7525 10.7183 18.3317V24.7621Z" fill="#FFF"/>

<path d="M24.7183 15.0938H18.3745C16.5652 15.0938 15.0933 16.5657 15.0933 18.375V24.7188C15.0933 26.528 16.5652 28 18.3745 28H24.7183C26.5275 28 27.9995 26.528 27.9995 24.7188V18.375C27.9995 16.5657 26.5275 15.0938 24.7183 15.0938ZM25.812 24.7188C25.812 25.3218 25.3214 25.8125 24.7183 25.8125H18.3745C17.7714 25.8125 17.2808 25.3218 17.2808 24.7188V18.375C17.2808 17.7719 17.7714 17.2812 18.3745 17.2812H24.7183C25.3214 17.2812 25.812 17.7719 25.812 18.375V24.7188Z" fill="#FFF"/>

</g>

<defs>

<clipPath id="clip0_14194_1185">

<rect width="28" height="28" fill="white" transform="translate(-0.000488281)"/>

</clipPath>

</defs>

</svg>

